<mxfile host="app.diagrams.net" modified="2022-12-17T08:55:23.456Z" agent="5.0 (Windows NT 10.0; Win64; x64) AppleWebKit/537.36 (KHTML, like Gecko) Chrome/108.0.0.0 Safari/537.36" etag="ap0lWi9hvNFGbXZ0MA-T" version="20.7.4" type="github">
  <diagram name="Page-1" id="2a216829-ef6e-dabb-86c1-c78162f3ba2b">
    <mxGraphModel dx="989" dy="527" grid="1" gridSize="10" guides="1" tooltips="1" connect="1" arrows="1" fold="1" page="1" pageScale="1" pageWidth="850" pageHeight="1100" background="none" math="0" shadow="0">
      <root>
        <mxCell id="0" />
        <mxCell id="1" parent="0" />
        <mxCell id="vfP_KP8TfnBtR3miXO91-9" value="Оценка публикации" style="swimlane;childLayout=stackLayout;resizeParent=1;resizeParentMax=0;horizontal=0;startSize=20;horizontalStack=0;html=1;" vertex="1" parent="1">
          <mxGeometry x="50" y="140" width="690" height="360" as="geometry" />
        </mxCell>
        <mxCell id="vfP_KP8TfnBtR3miXO91-10" value="Пользователь" style="swimlane;startSize=20;horizontal=0;html=1;" vertex="1" parent="vfP_KP8TfnBtR3miXO91-9">
          <mxGeometry x="20" width="670" height="120" as="geometry" />
        </mxCell>
        <mxCell id="vfP_KP8TfnBtR3miXO91-16" value="" style="edgeStyle=orthogonalEdgeStyle;rounded=0;orthogonalLoop=1;jettySize=auto;html=1;" edge="1" parent="vfP_KP8TfnBtR3miXO91-10" source="vfP_KP8TfnBtR3miXO91-13" target="vfP_KP8TfnBtR3miXO91-15">
          <mxGeometry relative="1" as="geometry" />
        </mxCell>
        <mxCell id="vfP_KP8TfnBtR3miXO91-13" value="" style="points=[[0.145,0.145,0],[0.5,0,0],[0.855,0.145,0],[1,0.5,0],[0.855,0.855,0],[0.5,1,0],[0.145,0.855,0],[0,0.5,0]];shape=mxgraph.bpmn.event;html=1;verticalLabelPosition=bottom;labelBackgroundColor=#ffffff;verticalAlign=top;align=center;perimeter=ellipsePerimeter;outlineConnect=0;aspect=fixed;outline=standard;symbol=general;" vertex="1" parent="vfP_KP8TfnBtR3miXO91-10">
          <mxGeometry x="20" y="25" width="30" height="30" as="geometry" />
        </mxCell>
        <mxCell id="vfP_KP8TfnBtR3miXO91-18" style="edgeStyle=orthogonalEdgeStyle;rounded=0;orthogonalLoop=1;jettySize=auto;html=1;exitX=1;exitY=0.5;exitDx=0;exitDy=0;" edge="1" parent="vfP_KP8TfnBtR3miXO91-10" source="vfP_KP8TfnBtR3miXO91-15">
          <mxGeometry relative="1" as="geometry">
            <mxPoint x="260" y="40" as="targetPoint" />
          </mxGeometry>
        </mxCell>
        <mxCell id="vfP_KP8TfnBtR3miXO91-15" value="Открыть сайт&lt;br&gt;atmosfera.ru" style="whiteSpace=wrap;html=1;verticalAlign=top;labelBackgroundColor=#ffffff;" vertex="1" parent="vfP_KP8TfnBtR3miXO91-10">
          <mxGeometry x="100" y="10" width="120" height="60" as="geometry" />
        </mxCell>
        <mxCell id="vfP_KP8TfnBtR3miXO91-17" value="Выбрать публикацию для анализа" style="whiteSpace=wrap;html=1;verticalAlign=top;labelBackgroundColor=#ffffff;" vertex="1" parent="vfP_KP8TfnBtR3miXO91-10">
          <mxGeometry x="380" y="10" width="120" height="60" as="geometry" />
        </mxCell>
        <mxCell id="vfP_KP8TfnBtR3miXO91-22" style="edgeStyle=orthogonalEdgeStyle;rounded=0;orthogonalLoop=1;jettySize=auto;html=1;exitX=1;exitY=0.5;exitDx=0;exitDy=0;exitPerimeter=0;entryX=0;entryY=0.5;entryDx=0;entryDy=0;" edge="1" parent="vfP_KP8TfnBtR3miXO91-10" source="vfP_KP8TfnBtR3miXO91-21" target="vfP_KP8TfnBtR3miXO91-17">
          <mxGeometry relative="1" as="geometry" />
        </mxCell>
        <mxCell id="vfP_KP8TfnBtR3miXO91-24" style="edgeStyle=orthogonalEdgeStyle;rounded=0;orthogonalLoop=1;jettySize=auto;html=1;exitX=0.5;exitY=1;exitDx=0;exitDy=0;exitPerimeter=0;entryX=0.5;entryY=0;entryDx=0;entryDy=0;entryPerimeter=0;" edge="1" parent="vfP_KP8TfnBtR3miXO91-10" source="vfP_KP8TfnBtR3miXO91-21" target="vfP_KP8TfnBtR3miXO91-23">
          <mxGeometry relative="1" as="geometry" />
        </mxCell>
        <mxCell id="vfP_KP8TfnBtR3miXO91-21" value="" style="points=[[0.25,0.25,0],[0.5,0,0],[0.75,0.25,0],[1,0.5,0],[0.75,0.75,0],[0.5,1,0],[0.25,0.75,0],[0,0.5,0]];shape=mxgraph.bpmn.gateway2;html=1;verticalLabelPosition=bottom;labelBackgroundColor=#ffffff;verticalAlign=top;align=center;perimeter=rhombusPerimeter;outlineConnect=0;outline=none;symbol=none;gwType=exclusive;" vertex="1" parent="vfP_KP8TfnBtR3miXO91-10">
          <mxGeometry x="260" y="27.5" width="30" height="25" as="geometry" />
        </mxCell>
        <mxCell id="vfP_KP8TfnBtR3miXO91-23" value="" style="points=[[0.145,0.145,0],[0.5,0,0],[0.855,0.145,0],[1,0.5,0],[0.855,0.855,0],[0.5,1,0],[0.145,0.855,0],[0,0.5,0]];shape=mxgraph.bpmn.event;html=1;verticalLabelPosition=bottom;labelBackgroundColor=#ffffff;verticalAlign=top;align=center;perimeter=ellipsePerimeter;outlineConnect=0;aspect=fixed;outline=end;symbol=terminate;" vertex="1" parent="vfP_KP8TfnBtR3miXO91-10">
          <mxGeometry x="260" y="70" width="30" height="30" as="geometry" />
        </mxCell>
        <mxCell id="vfP_KP8TfnBtR3miXO91-11" value="Сайт" style="swimlane;startSize=20;horizontal=0;html=1;" vertex="1" parent="vfP_KP8TfnBtR3miXO91-9">
          <mxGeometry x="20" y="120" width="670" height="120" as="geometry" />
        </mxCell>
        <mxCell id="vfP_KP8TfnBtR3miXO91-19" value="Найти публикацию" style="whiteSpace=wrap;html=1;verticalAlign=top;labelBackgroundColor=#ffffff;" vertex="1" parent="vfP_KP8TfnBtR3miXO91-11">
          <mxGeometry x="540" y="20" width="120" height="60" as="geometry" />
        </mxCell>
        <mxCell id="vfP_KP8TfnBtR3miXO91-12" value="ВКонтакте" style="swimlane;startSize=20;horizontal=0;html=1;" vertex="1" parent="vfP_KP8TfnBtR3miXO91-9">
          <mxGeometry x="20" y="240" width="670" height="120" as="geometry" />
        </mxCell>
        <mxCell id="vfP_KP8TfnBtR3miXO91-20" style="edgeStyle=orthogonalEdgeStyle;rounded=0;orthogonalLoop=1;jettySize=auto;html=1;exitX=1;exitY=0.5;exitDx=0;exitDy=0;entryX=0.5;entryY=0;entryDx=0;entryDy=0;dashed=1;" edge="1" parent="vfP_KP8TfnBtR3miXO91-9" source="vfP_KP8TfnBtR3miXO91-17" target="vfP_KP8TfnBtR3miXO91-19">
          <mxGeometry relative="1" as="geometry" />
        </mxCell>
        <mxCell id="vfP_KP8TfnBtR3miXO91-25" value="Закрыть сайт" style="text;html=1;align=center;verticalAlign=middle;resizable=0;points=[];autosize=1;strokeColor=none;fillColor=none;" vertex="1" parent="1">
          <mxGeometry x="300" y="235" width="100" height="30" as="geometry" />
        </mxCell>
      </root>
    </mxGraphModel>
  </diagram>
</mxfile>
